<?xml version="1.0" encoding="utf-8"?>
<svg version="1.1" xmlns="http://www.w3.org/2000/svg" xmlns:xlink="http://www.w3.org/1999/xlink" x="0px" y="0px"
	 viewBox="0 0 36 36" style="enable-background:new 0 0 36 36;" xml:space="preserve">
<circle style="fill:#0D78F2;" cx="18" cy="18" r="18"/>
<g>
	<path style="fill:#FFFFFF;" d="M8.333,23.992V12.863l6.634,6.008v-5.775h2.401V24.21l-6.634-5.906v5.688H8.333z"/>
	<path style="fill:#FFFFFF;" d="M24.751,21.737c1.222,0,2.066-0.712,2.517-1.338l1.892,1.484c-0.815,1.295-2.503,2.328-4.409,2.328
		c-3.098,0-5.571-2.56-5.571-5.673c0-3.084,2.444-5.6,5.543-5.6c1.789,0,3.375,0.814,4.263,2.08l-1.935,1.397
		c-0.451-0.626-1.353-1.062-2.328-1.062c-1.6,0-3.128,1.484-3.128,3.186C21.595,20.239,23.152,21.737,24.751,21.737z"/>
</g>
</svg>
